<svg width="36" height="36" viewBox="0 0 36 36" fill="none" xmlns="http://www.w3.org/2000/svg">
<path fill-rule="evenodd" clip-rule="evenodd" d="M17.9891 5.57548C14.4793 2.50815 9.28859 1.88047 5.25764 5.3246C0.897452 9.05004 0.263957 15.3243 3.71188 19.761C5.02067 21.4452 7.57516 23.9753 10.0301 26.2925C12.5137 28.6368 14.9917 30.852 16.2137 31.9342C16.2213 31.941 16.2291 31.9478 16.237 31.9549C16.3519 32.0567 16.4949 32.1834 16.632 32.2867C16.7961 32.4103 17.0318 32.5638 17.3465 32.6577C17.7649 32.7825 18.2146 32.7825 18.6329 32.6577C18.9476 32.5638 19.1833 32.4103 19.3475 32.2867C19.4846 32.1834 19.6276 32.0567 19.7424 31.9549C19.7504 31.9478 19.7581 31.941 19.7658 31.9342C20.9878 30.852 23.4657 28.6368 25.9494 26.2925C28.4043 23.9753 30.9588 21.4452 32.2675 19.761C35.7022 15.3413 35.1666 9.01869 30.7062 5.31145C26.6303 1.92381 21.495 2.50699 17.9891 5.57548Z" fill="#FF0000"/>
</svg>
