<svg width="25" height="24" viewBox="0 0 25 24" fill="none" xmlns="http://www.w3.org/2000/svg">
<path fill-rule="evenodd" clip-rule="evenodd" d="M12.5 2C10.07 2 8.1 3.91312 8.1 6.27308C8.1 8.63303 10.07 10.5462 12.5 10.5462C14.9301 10.5462 16.9 8.63303 16.9 6.27308C16.9 3.91312 14.9301 2 12.5 2ZM12.5 12.1C10.3783 12.1 8.34344 12.9185 6.84315 14.3756C5.34285 15.8326 4.5 17.8087 4.5 19.8692V21.4231C4.5 21.8522 4.85817 22.2 5.3 22.2H19.7C20.1418 22.2 20.5 21.8522 20.5 21.4231V19.8692C20.5 17.8087 19.6571 15.8326 18.1569 14.3756C16.6566 12.9185 14.6217 12.1 12.5 12.1Z" fill="white"/>
</svg>
