<svg width="18" height="20" viewBox="0 0 18 20" fill="none" xmlns="http://www.w3.org/2000/svg">
<path fill-rule="evenodd" clip-rule="evenodd" d="M7.04186 2.26541C7.56119 1.72959 8.26556 1.42857 9 1.42857C9.73445 1.42857 10.4388 1.72959 10.9581 2.26541C11.4775 2.80123 11.7692 3.52795 11.7692 4.28572V4.28573H6.23077V4.28572C6.23077 3.52795 6.52253 2.80123 7.04186 2.26541ZM4.84616 4.28573V4.28572C4.84616 3.14907 5.2838 2.05898 6.06279 1.25526C6.84179 0.45153 7.89834 0 9 0C10.1017 0 11.1582 0.45153 11.9372 1.25526C12.7162 2.05898 13.1538 3.14907 13.1538 4.28572V4.28573H17.3077C17.69 4.28573 18 4.60553 18 5.00001C18 5.3945 17.69 5.7143 17.3077 5.7143H15.9231V17.8572C15.9231 18.4255 15.7043 18.9705 15.3148 19.3724C14.9253 19.7743 14.397 20 13.8462 20H4.15384C3.60301 20 3.07474 19.7743 2.68524 19.3724C2.29574 18.9705 2.07692 18.4255 2.07692 17.8572V5.7143H0.692308C0.309957 5.7143 0 5.3945 0 5.00001C0 4.60553 0.309957 4.28573 0.692308 4.28573H4.84616ZM3.46154 5.71431V17.8572C3.46154 18.0466 3.53448 18.2283 3.66431 18.3622C3.79414 18.4962 3.97023 18.5715 4.15384 18.5715H13.8462C14.0298 18.5715 14.2059 18.4962 14.3357 18.3622C14.4655 18.2283 14.5385 18.0466 14.5385 17.8572V5.71431H3.46154Z" fill="black"/>
</svg>
