<svg width="24" height="24" viewBox="0 0 24 24" fill="none" xmlns="http://www.w3.org/2000/svg">
<rect width="24" height="24" fill="#F5F5F5"/>
<g id="Post with vibes">
<path d="M-2013 -982C-2013 -983.105 -2012.1 -984 -2011 -984H1925C1926.1 -984 1927 -983.105 1927 -982V291C1927 292.105 1926.1 293 1925 293H-2011C-2012.1 293 -2013 292.105 -2013 291V-982Z" fill="#E5E5E5"/>
<g id="Create post" clip-path="url(#clip0_0_1)">
<rect width="393" height="853" transform="translate(-95 -725)" fill="white"/>
<g id="Alphanumberic" filter="url(#filter0_b_0_1)">
<rect width="393" height="292" transform="translate(-95 -164)" fill="#C5C9D0" fill-opacity="0.9"/>
<g id="Alphanumeric Keyboard Layout">
<g id="Row 4">
<g id="Keys" filter="url(#filter1_d_0_1)">
<rect x="6" y="8" width="190" height="44" rx="5" fill="white" shape-rendering="crispEdges"/>
</g>
</g>
</g>
</g>
<g id="Add video" filter="url(#filter2_d_0_1)">
<path d="M-95 -410C-95 -418.837 -87.8366 -426 -79 -426H282C290.837 -426 298 -418.837 298 -410V127H-95V-410Z" fill="white"/>
</g>
<g id="Frame 307" clip-path="url(#clip1_0_1)">
<g id="Frame 310">
<g id="Frame 310_2">
<g id="Vector">
<path fill-rule="evenodd" clip-rule="evenodd" d="M12 2.18182C6.57757 2.18182 2.18182 6.57757 2.18182 12C2.18182 17.4224 6.57757 21.8182 12 21.8182C17.4224 21.8182 21.8182 17.4224 21.8182 12C21.8182 6.57757 17.4224 2.18182 12 2.18182ZM0 12C0 5.37258 5.37258 0 12 0C18.6274 0 24 5.37258 24 12C24 18.6274 18.6274 24 12 24C5.37258 24 0 18.6274 0 12ZM7.09091 8.72727C7.09091 7.82353 7.82353 7.09091 8.72727 7.09091C9.63101 7.09091 10.3636 7.82353 10.3636 8.72727C10.3636 9.63101 9.63101 10.3636 8.72727 10.3636C7.82353 10.3636 7.09091 9.63101 7.09091 8.72727ZM13.6364 8.72727C13.6364 7.82353 14.369 7.09091 15.2727 7.09091C16.1765 7.09091 16.9091 7.82353 16.9091 8.72727C16.9091 9.63101 16.1765 10.3636 15.2727 10.3636C14.369 10.3636 13.6364 9.63101 13.6364 8.72727Z" fill="black"/>
<path fill-rule="evenodd" clip-rule="evenodd" d="M8.50566 13.5227C8.14329 13.0447 7.46229 12.9487 6.98182 13.3091C6.49982 13.6706 6.40214 14.3544 6.76364 14.8364L7.63636 14.1818C6.76364 14.8364 6.76364 14.8364 6.76364 14.8364L6.76474 14.8378L6.766 14.8395L6.76899 14.8434L6.77685 14.8537L6.80008 14.8835C6.81889 14.9072 6.84437 14.9387 6.87639 14.9769C6.94037 15.0531 7.03091 15.1564 7.14704 15.2775C7.37839 15.5189 7.71647 15.8369 8.15381 16.155C9.02429 16.7881 10.3358 17.4545 12 17.4545C13.6642 17.4545 14.9757 16.7881 15.8462 16.155C16.2835 15.8369 16.6216 15.5189 16.853 15.2775C16.9691 15.1564 17.0596 15.0531 17.1236 14.9769C17.1556 14.9387 17.1811 14.9072 17.1999 14.8835L17.2232 14.8537L17.231 14.8434L17.234 14.8395L17.2353 14.8378C17.2353 14.8378 17.2364 14.8364 16.3636 14.1818L17.2364 14.8364C17.5979 14.3544 17.5002 13.6706 17.0182 13.3091C16.5377 12.9487 15.8567 13.0447 15.4943 13.5227L15.4893 13.5292C15.4828 13.5374 15.4704 13.5528 15.4524 13.5743C15.4162 13.6173 15.3576 13.6846 15.2777 13.7679C15.117 13.9356 14.8756 14.1631 14.5629 14.3905C13.9334 14.8483 13.0631 15.2727 12 15.2727C10.9369 15.2727 10.0666 14.8483 9.4371 14.3905C9.12444 14.1631 8.88297 13.9356 8.72228 13.7679C8.64239 13.6846 8.58378 13.6173 8.54761 13.5743C8.52956 13.5528 8.51722 13.5374 8.51073 13.5292L8.50566 13.5227Z" fill="black"/>
</g>
<rect x="-74.5" y="-32.5" width="173" height="115" rx="15.5" stroke="#D1D2D6"/>
</g>
</g>
</g>
</g>
<path d="M-2011 -983H1925V-985H-2011V-983ZM1926 -982V291H1928V-982H1926ZM1925 292H-2011V294H1925V292ZM-2012 291V-982H-2014V291H-2012ZM-2011 292C-2011.55 292 -2012 291.552 -2012 291H-2014C-2014 292.657 -2012.66 294 -2011 294V292ZM1926 291C1926 291.552 1925.55 292 1925 292V294C1926.66 294 1928 292.657 1928 291H1926ZM1925 -983C1925.55 -983 1926 -982.552 1926 -982H1928C1928 -983.657 1926.66 -985 1925 -985V-983ZM-2011 -985C-2012.66 -985 -2014 -983.657 -2014 -982H-2012C-2012 -982.552 -2011.55 -983 -2011 -983V-985Z" fill="black" fill-opacity="0.1"/>
</g>
<defs>
<filter id="filter0_b_0_1" x="-149" y="-218" width="501" height="400" filterUnits="userSpaceOnUse" color-interpolation-filters="sRGB">
<feFlood flood-opacity="0" result="BackgroundImageFix"/>
<feGaussianBlur in="BackgroundImageFix" stdDeviation="27"/>
<feComposite in2="SourceAlpha" operator="in" result="effect1_backgroundBlur_0_1"/>
<feBlend mode="normal" in="SourceGraphic" in2="effect1_backgroundBlur_0_1" result="shape"/>
</filter>
<filter id="filter1_d_0_1" x="6" y="8" width="190" height="45" filterUnits="userSpaceOnUse" color-interpolation-filters="sRGB">
<feFlood flood-opacity="0" result="BackgroundImageFix"/>
<feColorMatrix in="SourceAlpha" type="matrix" values="0 0 0 0 0 0 0 0 0 0 0 0 0 0 0 0 0 0 127 0" result="hardAlpha"/>
<feOffset dy="1"/>
<feComposite in2="hardAlpha" operator="out"/>
<feColorMatrix type="matrix" values="0 0 0 0 0 0 0 0 0 0 0 0 0 0 0 0 0 0 0.3 0"/>
<feBlend mode="normal" in2="BackgroundImageFix" result="effect1_dropShadow_0_1"/>
<feBlend mode="normal" in="SourceGraphic" in2="effect1_dropShadow_0_1" result="shape"/>
</filter>
<filter id="filter2_d_0_1" x="-111" y="-444" width="425" height="585" filterUnits="userSpaceOnUse" color-interpolation-filters="sRGB">
<feFlood flood-opacity="0" result="BackgroundImageFix"/>
<feColorMatrix in="SourceAlpha" type="matrix" values="0 0 0 0 0 0 0 0 0 0 0 0 0 0 0 0 0 0 127 0" result="hardAlpha"/>
<feOffset dy="-2"/>
<feGaussianBlur stdDeviation="8"/>
<feComposite in2="hardAlpha" operator="out"/>
<feColorMatrix type="matrix" values="0 0 0 0 0 0 0 0 0 0 0 0 0 0 0 0 0 0 0.25 0"/>
<feBlend mode="normal" in2="BackgroundImageFix" result="effect1_dropShadow_0_1"/>
<feBlend mode="normal" in="SourceGraphic" in2="effect1_dropShadow_0_1" result="shape"/>
</filter>
<clipPath id="clip0_0_1">
<rect width="393" height="853" fill="white" transform="translate(-95 -725)"/>
</clipPath>
<clipPath id="clip1_0_1">
<rect width="353" height="488" fill="white" transform="translate(-75 -405)"/>
</clipPath>
</defs>
</svg>
